{"title":"Star Trek Continues E05 Divided We Stand WEBRip 720p x264-[f1d]","uid":12503942,"size":826851089,"categoryP":"video","categoryS":"tv_shows","magnet":"?xt=urn:btih:5d8c42f265140e547567dc4575eee6ae22bab00c&amp;dn=Star+Trek+Continues+E05+Divided+We+Stand+WEBRip+720p+x264-%5Bf1d%5D+&amp;tr=udp%3A%2F%2Ftracker.leechers-paradise.org%3A6969&amp;tr=udp%3A%2F%2Fzer0day.ch%3A1337&amp;tr=udp%3A%2F%2Fopen.demonii.com%3A1337&amp;tr=udp%3A%2F%2Ftracker.coppersurfer.tk%3A6969&amp;tr=udp%3A%2F%2Fexodus.desync.com%3A6969","seeders":1,"leechers":0,"uploader":"F1_Dance","files":1,"time":1443421010,"description":"Star Trek Continues E05 &quot;Divided We Stand&quot;\r\n\r\nKirk and McCoy are trapped in time while an alien infestation threatens the Enterprise.\r\n\r\n\r\nGeneral\r\nComplete name : Star.Trek.Continues.E05.Divided.We.Stand.WEBRip.720p.x264-[f1d].mp4\r\nFormat : MPEG-4\r\nFormat profile : Base Media / Version 2\r\nCodec ID : mp42\r\nFile size : 789 MiB\r\nDuration : 42mn 45s\r\nOverall bit rate mode : Variable\r\nOverall bit rate : 2 579 Kbps\r\nEncoded date : UTC 2015-09-18 22:09:29\r\nTagged date : UTC 2015-09-18 22:09:29\r\n\r\nVideo\r\nID : 1\r\nFormat : AVC\r\nFormat/Info : Advanced Video Codec\r\nFormat profile :   \r\nFormat settings, CABAC : Yes\r\nFormat settings, ReFrames : 5 frames\r\nCodec ID : avc1\r\nCodec ID/Info : Advanced Video Coding\r\nDuration : 42mn 45s\r\nBit rate : 2 415 Kbps\r\nWidth : 960 pixels\r\nHeight : 720 pixels\r\nDisplay aspect ratio : 4:3\r\nFrame rate mode : Constant\r\nFrame rate : 23.976 fps\r\nColor space : YUV\r\nChroma subsampling : 4:2:0\r\nBit depth : 8 bits\r\nScan type : Progressive\r\nBits/(Pixel*Frame) : 0.146\r\nStream size : 738 MiB (94%)\r\nWriting library : x264 core 148 r11 73ae2d1\r\nEncoding settings : cabac=1 / ref=5 / deblock=1:0:0 / analyse=0x3:0x113 / me=umh / subme=8 / psy=1 / psy_rd=1.00:0.00 / mixed_ref=1 / me_range=16 / chroma_me=1 / trellis=1 / 8x8dct=1 / cqm=0 / deadzone=21,11 / fast_pskip=1 / chroma_qp_offset=-2 / threads=22 / lookahead_threads=3 / sliced_threads=0 / nr=0 / decimate=1 / interlaced=0 / bluray_compat=0 / stitchable=1 / constrained_intra=0 / bframes=3 / b_pyramid=2 / b_adapt=2 / b_bias=0 / direct=3 / weightb=1 / open_gop=0 / weightp=2 / keyint=infinite / keyint_min=23 / scenecut=40 / intra_refresh=0 / rc_lookahead=50 / rc=crf / mbtree=1 / crf=20.0 / qcomp=0.60 / qpmin=5 / qpmax=69 / qpstep=4 / vbv_maxrate=2750 / vbv_bufsize=7500 / crf_max=0.0 / nal_hrd=none / filler=0 / ip_ratio=1.40 / aq=1:1.00\r\nEncoded date : UTC 2015-09-18 22:09:29\r\nTagged date : UTC 2015-09-18 22:09:29\r\nColor range : Limited\r\nColor primaries : BT.709\r\nTransfer characteristics : BT.709\r\nMatrix coefficients : BT.709\r\n\r\nAudio\r\nID : 2\r\nFormat : AAC\r\nFormat/Info : Advanced Audio Codec\r\nFormat profile : LC\r\nCodec ID : 40\r\nDuration : 42mn 45s\r\nBit rate mode : Variable\r\nBit rate : 160 Kbps\r\nChannel(s) : 2 channels\r\nChannel positions : Front: L R\r\nSampling rate : 48.0 KHz\r\nCompression mode : Lossy\r\nStream size : 48.9 MiB (6%)\r\nEncoded date : UTC 2015-09-18 22:09:29\r\nTagged date : UTC 2015-09-18 22:09:29","torrent":{"xt":"urn:btih:5d8c42f265140e547567dc4575eee6ae22bab00c","amp;dn":"Star+Trek+Continues+E05+Divided+We+Stand+WEBRip+720p+x264-%5Bf1d%5D+","amp;tr":["udp%3A%2F%2Ftracker.leechers-paradise.org%3A6969","udp%3A%2F%2Fzer0day.ch%3A1337","udp%3A%2F%2Fopen.demonii.com%3A1337","udp%3A%2F%2Ftracker.coppersurfer.tk%3A6969","udp%3A%2F%2Fexodus.desync.com%3A6969"],"infoHash":"5d8c42f265140e547567dc4575eee6ae22bab00c","infoHashBuffer":{"type":"Buffer","data":[93,140,66,242,101,20,14,84,117,103,220,69,117,238,230,174,34,186,176,12]},"announce":[],"urlList":[]}}